<?xml version="1.0" encoding="UTF-8"?>
<svg width="180px" height="40px" viewBox="0 0 180 40" version="1.1" xmlns="http://www.w3.org/2000/svg" xmlns:xlink="http://www.w3.org/1999/xlink">
    <title>logo-横版</title>
    <defs>
        <linearGradient x1="49.9517375%" y1="51.2487796%" x2="50.0241313%" y2="48.7474419%" id="linearGradient-1">
            <stop stop-color="#E6A363" offset="0%"/>
            <stop stop-color="#FCE2BA" offset="100%"/>
        </linearGradient>
    </defs>
    <g id="控件" stroke="none" stroke-width="1" fill="none" fill-rule="evenodd">
        <g id="头部导航栏" transform="translate(-360.000000, -20.000000)">
            <g id="logo-横版" transform="translate(360.000000, 20.000000)">
                <path d="M50.0050611,36.5733591 L50.0050611,28.6872587 C50.0050611,28.2432029 50.3660642,27.8817343 50.8148991,27.8763762 L53.663968,27.8763762 C54.2873944,27.8743983 54.910175,27.9163322 55.5275712,28.0019305 C56.0855827,28.087347 56.6182144,28.2915296 57.0887048,28.6003861 C57.6096471,28.9546015 58.0323648,29.4325296 58.3180976,29.9903475 C58.6466728,30.6705385 58.8071939,31.4182246 58.7864376,32.1718147 C58.8389076,33.3400237 58.429449,34.482529 57.6448587,35.3571429 C56.5993411,36.2695073 55.2171123,36.7101574 53.8298384,36.5733591 L50.0050611,36.5733591 Z M139.965386,32.4903475 C139.965386,32.3981873 140.002393,32.3098018 140.068266,32.2446347 C140.134139,32.1794676 140.223482,32.1428571 140.316641,32.1428571 L144.473159,32.1428571 L144.473159,35.3571429 C143.172567,36.2224103 141.640044,36.6829545 140.072714,36.6795367 C139.304853,36.6903935 138.53935,36.5928872 137.799313,36.3899614 C137.184365,36.2107017 136.613166,35.9084516 136.121094,35.5019305 C135.658679,35.1061205 135.28908,34.6153093 135.038058,34.0637066 C134.771251,33.4885113 134.634719,32.862586 134.638017,32.2297297 C134.599467,30.996815 135.100981,29.807491 136.013766,28.9671815 C137.102547,28.0650743 138.49893,27.6092069 139.9166,27.6930502 C142.316843,27.6930502 143.767396,28.5553411 144.26826,30.2799228 L143.409637,30.4633205 L143.409637,30.4633205 C143.209918,30.537384 142.985523,30.4551652 142.882754,30.2702703 L142.882754,30.2702703 C142.339125,29.1866202 141.171836,28.5514923 139.955628,28.6776062 C138.919688,28.6140802 137.897973,28.9418023 137.096803,29.5945946 C136.412075,30.2669616 136.056075,31.2002518 136.121094,32.1525097 C136.02579,33.1716801 136.450256,34.1707922 137.252916,34.8166023 C138.055357,35.3790882 139.021424,35.6671575 140.004414,35.6370656 C141.105022,35.6770365 142.189434,35.3656908 143.09741,34.7490347 L143.09741,33.1660232 L139.9849,33.1660232 L139.9849,32.4903475 L139.965386,32.4903475 Z M154.825426,30.0579151 L155.323037,28.996139 C155.469394,29.3822394 155.693807,29.9131274 156.006033,30.5888031 L157.137855,33.0019305 L153.478948,33.0019305 L154.659556,30.4440154 C154.718098,30.3185328 154.776641,30.1833977 154.825426,30.0579151 L154.825426,30.0579151 Z M51.4003242,35.5501931 L53.663968,35.5501931 C54.3952756,35.5833378 55.1257211,35.4683761 55.8105267,35.2123552 C56.3080688,34.9808705 56.708356,34.5848736 56.9423486,34.0926641 C57.2200833,33.4871958 57.3536071,32.8267322 57.332632,32.1621622 C57.3397575,31.6916993 57.2739461,31.2229355 57.1374903,30.7722008 C57.0223215,30.3949186 56.8221595,30.0483894 56.5520652,29.7586873 C56.2796879,29.4783907 55.9458688,29.2637339 55.5763567,29.1312741 C54.942086,28.9544337 54.2832301,28.8794774 53.6249396,28.9092664 L51.829636,28.9092664 C51.5369234,28.9092664 51.4100813,29.0444015 51.4100813,29.3339768 L51.4100813,35.5598456 L51.4003242,35.5501931 Z M60.2987858,32.3359073 C60.2879209,31.5228075 60.4824404,30.7198906 60.8646968,30 C61.2640906,29.2949434 61.8602566,28.7185711 62.5819437,28.3397683 C63.4439084,27.9015979 64.4037399,27.6857924 65.3724701,27.7123552 C66.0695218,27.703564 66.7628207,27.8146093 67.4214579,28.0405405 C68.0139624,28.2382069 68.5610995,28.5498489 69.031377,28.957529 C69.4839102,29.3518424 69.8436015,29.8394696 70.0851422,30.3861004 C70.3360847,30.9721125 70.4622979,31.6029863 70.4559114,32.2393822 C70.4821965,33.0737468 70.2654348,33.8979946 69.831458,34.6138996 C69.3937111,35.2981736 68.7579575,35.8363038 68.0068831,36.1583012 C67.1782387,36.5217802 66.2786868,36.6997623 65.3724701,36.6795367 C64.4544086,36.6926069 63.5458476,36.4943371 62.7185429,36.1003861 C61.2326073,35.4050646 60.2861163,33.9234559 60.289022,32.2972973 L60.2987858,32.3359073 Z M61.7330773,32.3359073 C61.7200792,32.9698087 61.8856177,33.5947867 62.2111745,34.1409266 C62.5149495,34.6401767 62.9544759,35.0448898 63.4795956,35.3088803 C64.066929,35.5968696 64.7173243,35.7361676 65.3724701,35.7142857 C66.3624333,35.7675207 67.3315027,35.4189087 68.0556685,34.7490347 C68.7180387,34.0664567 69.0704037,33.1461834 69.031377,32.2007722 C69.0480493,31.5474984 68.889843,30.9014756 68.572794,30.3281853 C68.2831211,29.815036 67.8493188,29.3959415 67.3238871,29.1216216 C66.720636,28.8178301 66.048901,28.6716323 65.3724701,28.6969112 C64.8388964,28.6900588 64.3079276,28.7716237 63.8015794,28.9382239 C62.9217334,29.2447412 62.2340656,29.935724 61.9379761,30.8108108 C61.7801063,31.3073228 61.7011089,31.825071 61.7037393,32.3455598 L61.7330773,32.3359073 Z M72.2707292,36.5637066 L72.2707292,28.6872587 C72.2707292,28.2432029 72.6317324,27.8817343 73.0805673,27.8764479 L73.7050207,27.8764479 L79.3055876,34.7490347 L79.3055876,27.8764479 L80.6715795,27.8764479 L80.6715795,35.7722008 C80.6715795,36.2146683 80.3090026,36.5733591 79.8617414,36.5733591 L79.2177738,36.5733591 L73.617207,29.7297297 L73.617207,36.5733591 L72.2707292,36.5637066 Z M87.9698791,33.1563707 L87.9698791,32.1428571 L92.4776525,32.1428571 L92.4776525,35.3571429 C91.1811166,36.2232677 89.651413,36.6839861 88.0869642,36.6795367 C87.3191034,36.6903935 86.5536002,36.5928872 85.8135633,36.3899614 C85.1995502,36.2084509 84.6287908,35.906433 84.1353447,35.5019305 C83.6758421,35.1034509 83.3067497,34.6133126 83.0523083,34.0637066 C82.7855015,33.4885113 82.6489701,32.862586 82.6522678,32.2297297 C82.6137181,30.996815 83.1152314,29.807491 84.0280168,28.9671815 C85.1167981,28.0650743 86.5131808,27.6092069 87.9308508,27.6930502 C90.3310937,27.6930502 91.7848994,28.5553411 92.2922678,30.2799228 L91.0140897,30.5598456 C90.5503305,29.3068269 89.2811042,28.5295365 87.9406079,28.6776062 C86.9046674,28.6140802 85.8829528,28.9418023 85.081782,29.5945946 C84.3970548,30.2669616 84.0410542,31.2002518 84.1060734,32.1525097 C84.0160123,33.1708747 84.4394857,34.1676504 85.2378953,34.8166023 C86.0409673,35.3778105 87.0065912,35.6657478 87.9893933,35.6370656 C89.0960889,35.677098 90.1867192,35.36593 91.1019035,34.7490347 L91.1019035,33.1660232 L87.9698791,33.1563707 Z M93.6680168,36.5733591 L93.6680168,35.511583 L99.1612557,29.9227799 C99.5103706,29.5567282 99.8783785,29.2087736 100.263806,28.8803089 L94.3217415,28.8803089 L94.3217415,28.4749035 C94.3217415,28.1337237 94.6013189,27.8571429 94.946195,27.8571429 L101.951782,27.8571429 L101.951782,28.8803089 L95.3364784,35.530888 L102.107895,35.530888 L102.107895,35.9362934 C102.107895,36.2737389 101.834259,36.5487815 101.493199,36.5540541 L93.6680168,36.5733591 Z M103.639758,36.5733591 L103.639758,28.4942085 C103.639758,28.156763 103.913394,27.8817205 104.254454,27.8764479 L105.044778,27.8764479 L105.044778,31.457529 L110.577045,31.457529 L110.577045,27.8764479 L111.991823,27.8764479 L111.991823,35.9555985 C111.991823,36.2967782 111.712245,36.5733591 111.367369,36.5733591 L110.577045,36.5733591 L110.577045,32.480695 L105.083806,32.480695 L105.083806,36.5733591 L103.639758,36.5733591 Z M114.372551,36.5733591 L114.372551,28.8513514 C114.372551,28.318258 114.809391,27.8861004 115.34826,27.8861004 L122.031863,27.8861004 L122.031863,28.9092664 L116.314211,28.9092664 C115.914171,28.9092664 115.7483,28.9092664 115.7483,29.3725869 L115.7483,31.5637066 L121.602551,31.5637066 L121.602551,32.5868726 L115.7483,32.5868726 L115.7483,35.5501931 L122.27579,35.5501931 L122.27579,36.0810811 C122.27579,36.4189189 122.100163,36.5733591 121.758665,36.5733591 L114.372551,36.5733591 Z M124.236964,36.5733591 L124.236964,28.6872587 C124.236964,28.1370656 124.45162,27.8764479 125.017531,27.8764479 L125.671256,27.8764479 L131.291337,34.7490347 L131.291337,27.8764479 L132.696357,27.8764479 L132.696357,35.9555985 L132.696357,35.9555985 C132.696357,36.2967782 132.41678,36.5733591 132.071904,36.5733591 L131.242552,36.5733591 L125.641985,29.7297297 L125.641985,36.5733591 L124.236964,36.5733591 Z M150.405467,36.5733591 L151.449475,36.5733591 C151.790973,36.5733591 151.908058,36.5733591 152.044657,36.2355212 C152.386155,35.4633205 152.717896,34.7007722 153.020365,33.9285714 L157.498867,33.9285714 L158.72826,36.5733591 L160.338179,36.5733591 L155.986519,27.8861004 L155.186438,27.8861004 C154.649799,27.8861004 154.464414,27.8861004 154.21073,28.3687259 L150.356681,36.5830116 L150.405467,36.5733591 Z M161.567572,36.5733591 L161.567572,28.8513514 C161.567572,28.318258 162.004412,27.8861004 162.54328,27.8861004 L168.797572,27.8861004 L168.797572,28.3011583 C168.797572,28.6370071 168.522363,28.9092664 168.182876,28.9092664 L163.392147,28.9092664 C163.297339,28.903566 163.204609,28.938342 163.137445,29.0047852 C163.070282,29.0712284 163.03513,29.1629649 163.040892,29.2567568 L163.040892,31.6119691 L168.026762,31.6119691 L168.026762,32.027027 C168.026762,32.3628759 167.751553,32.6351351 167.412066,32.6351351 L163.040892,32.6351351 L163.040892,36.5830116 L161.567572,36.5733591 Z M178.154617,33.523166 L179.530366,33.7837838 C178.925426,35.7142857 177.452106,36.6795367 175.120163,36.6795367 C173.729641,36.7963785 172.35511,36.3185164 171.344171,35.3667954 C170.531535,34.4776608 170.098,33.3120521 170.134293,32.1138996 C170.04667,30.8443068 170.58456,29.6110708 171.578341,28.8030888 C172.608385,28.0458 173.866678,27.6546723 175.149434,27.6930502 C177.344779,27.6930502 178.749799,28.5328185 179.344981,30.2123552 L178.574171,30.3667954 L178.574171,30.3667954 C178.018017,30.472973 177.803362,30.1544402 177.783847,30.0965251 L177.783847,30.0965251 C177.258293,29.1434856 176.213736,28.5870602 175.120163,28.6776062 C174.153998,28.6142165 173.203229,28.9416771 172.48575,29.5849421 C171.850279,30.2719968 171.522957,31.184246 171.578341,32.1138996 C171.479344,33.1223788 171.836571,34.1224957 172.55405,34.8455598 C173.232853,35.4241861 174.107652,35.7276013 175.003078,35.6949807 C176.46193,35.8809095 177.825302,34.9413709 178.154617,33.523166 L178.154617,33.523166 Z" id="形状" fill="#69318E"/>
                <path d="M8.78137658,29.8648649 C8.86919034,29.6911197 8.95700411,29.469112 9.02530371,29.2953668 C9.21068832,28.8899614 9.38631585,28.484556 9.56194338,28.0791506 C9.73757092,27.6737452 9.79611343,27.519305 9.92295553,27.2393822 C10.2016595,26.6709017 10.3451738,26.0468672 10.3425466,25.4150579 L10.3425466,24.6621622 L5.02489882,24.6621622 L5.02489882,30.453668 L7.60076928,30.453668 C8.06503666,30.5179215 8.52503958,30.3110703 8.78137658,29.9227799 L8.78137658,29.9227799 L8.78137658,29.8648649 Z M0,8.68725869 C0,9.4762369 0.646522577,10.1158301 1.44404859,10.1158301 L17.6115386,10.1158301 L17.6115386,7.88610039 L6.59578952,7.88610039 C6.02987858,7.88610039 5.24931178,7.67374517 5.15174093,7.04633205 L4.54680165,3.33976834 L9.8156276,3.33976834 L10.0497976,4.82625483 C10.1180972,5.19305019 10.2839677,5.31853282 10.6742511,5.31853282 L17.6115386,5.31853282 L17.6115386,-3.51463606e-15 L3.04421055,-3.51463606e-15 C1.36736939,0.010532819 0.0106469318,1.35271407 0,3.01158301 L0,8.68725869 Z M1.33672066,12.7027027 L17.6115386,12.7027027 L17.6115386,19.8166023 L10.5278948,19.8166023 L10.5278948,17.5772201 L14.9283402,17.5772201 L14.9283402,14.9903475 L5.98109316,14.9903475 C5.79477063,14.9877696 5.61504609,15.0585296 5.48146613,15.1870574 C5.34788617,15.3155851 5.27139579,15.4913496 5.26882595,15.6756757 L5.26882595,21.7471042 C5.27946406,22.1324832 5.60118948,22.4378572 5.99085024,22.4324324 L17.6115386,22.4324324 L17.6115386,24.6138996 C17.7165774,26.5409544 18.0640059,28.4475432 18.6457896,30.2895753 L21.7582997,30.2895753 C22.0627564,29.5051195 22.2914424,28.6939055 22.4412957,27.8667954 C22.6589995,26.7969713 22.7992076,25.7131342 22.8608504,24.6235521 L22.8608504,22.4324324 L34.5693525,22.4324324 C34.9361616,22.4076341 35.2236168,22.110714 35.2328342,21.7471042 L35.2328342,19.8166023 L22.8706074,19.8166023 L22.8706074,17.5772201 L34.5010529,17.5772201 C34.6873754,17.5797979 34.8670999,17.509038 35.0006799,17.3805102 C35.1342599,17.2519824 35.2107502,17.0762179 35.2133201,16.8918919 L35.2133201,14.96139 L22.8706074,14.96139 L22.8706074,12.7316602 L39.106397,12.7316602 C39.4600267,12.7316508 39.7990322,12.8712813 40.0481685,13.1195596 C40.2973049,13.367838 40.4359608,13.704224 40.4333965,14.0540541 L40.4333965,33.6003861 L0,33.6003861 L0,12.7316602 L1.33672066,12.7027027 Z M24.2073281,-3.51463606e-15 L37.3891501,-3.51463606e-15 C39.0681976,0.00529845101 40.4280047,1.35053128 40.4333606,3.01158301 L40.4333606,10.1447876 L22.8706074,10.1447876 L22.8706074,7.88610039 L33.8961136,7.88610039 C34.4327533,7.88610039 35.2621055,7.66409266 35.3401622,7.04633205 L35.9158302,3.33976834 L30.6567613,3.33976834 L30.4323484,4.82625483 C30.383563,5.17374517 30.1396358,5.31853282 29.7786237,5.31853282 L22.8706074,5.31853282 L22.8706074,1.32239382 L22.8706074,1.32239382 C22.8706074,0.592055881 23.4690777,-3.51463606e-15 24.2073281,-3.51463606e-15 Z M30.1201217,24.6621622 L30.1201217,25.4054054 C30.1249037,26.0104956 30.2543846,26.6082634 30.500648,27.1621622 L31.7202836,29.9227799 C31.9779422,30.2989536 32.4247988,30.5032704 32.8813767,30.453668 L35.4572472,30.453668 L35.4572472,24.6621622 L30.1201217,24.6621622 Z" id="形状" fill="#69318E"/>
                <path d="M40.4333606,36.988417 C40.4333606,38.6516684 39.0704211,40 37.3891501,40 L3.04421055,40 C1.36516296,39.9947015 0.00535585451,38.6494687 0,36.988417 L0,33.6003861 L40.4333606,33.6003861 L40.4333606,36.988417 Z" id="路径" fill="url(#linearGradient-1)"/>
                <path d="M80.0080977,3.67760618 L71.2950207,3.67760618 L71.2950207,2.78957529 C71.2975906,2.60524925 71.3740809,2.42948474 71.5076609,2.30095698 C71.6412409,2.17242921 71.8209654,2.10166925 72.0072879,2.10417906 L90.8872476,2.10417906 L90.8872476,2.98262548 C90.8846775,3.16951144 90.8071591,3.34773096 90.6717494,3.47806887 C90.5363396,3.60840679 90.3541335,3.68018379 90.1652233,3.67760618 L83.3352637,3.67760618 L83.3352637,9.05405405 L90.7408913,9.05405405 L90.7408913,9.94208494 C90.7302532,10.3274639 90.4085278,10.6328379 90.018867,10.6274131 L83.2864783,10.6274131 L83.2864783,16.9015444 L91.2189885,16.9015444 L91.2189885,17.7895753 C91.2164186,17.9739013 91.1399283,18.1496658 91.0063483,18.2781936 C90.8727683,18.4067214 90.6930438,18.4774813 90.5067213,18.4749715 L70.9925511,18.4749715 L70.9925511,17.5868726 C70.997888,17.2014892 71.3152231,16.8918557 71.7048183,16.8918919 L72.3292717,16.8918919 L72.3292717,8.2046332 C72.3399099,7.81925429 72.6616353,7.51388022 73.051296,7.51930502 L75.6759519,7.51930502 L75.6759519,16.9015444 L80.0080977,16.9015444 L80.0080977,3.67760618 Z" id="路径" fill="#69318E"/>
                <path d="M68.9923486,2.74131274 L68.9923486,2.65444015 L54.6396765,2.65444015 L55.0006886,1.68918919 L52.1906481,1.68918919 C51.8415149,1.6465947 51.5038438,1.829158 51.3515388,2.14285714 L51.1661542,2.62548263 L49.5562352,2.62548263 C49.1665744,2.62005782 48.844849,2.92543189 48.8342109,3.31081081 L48.8342109,4.18918919 L50.5612149,4.18918919 L48.7854254,9.1988417 L48.7854254,10.6177606 L57.4302028,10.6177606 L57.4302028,16.6409266 C57.4302028,16.8328403 57.2729406,16.988417 57.0789478,16.988417 L55.7129558,16.988417 L55.7129558,18.465251 L59.518219,18.465251 C59.8649525,18.4828092 60.202602,18.352162 60.4452844,18.1065402 C60.6879669,17.8609185 60.8122931,17.5239947 60.7866401,17.1814672 L60.7866401,10.6177606 L68.2995956,10.6177606 C68.6892564,10.6231854 69.0109818,10.3178113 69.0216199,9.93243243 L69.0216199,9.05405405 L60.776883,9.05405405 L60.776883,5.94594595 L58.1522271,5.94594595 C57.7625664,5.94052114 57.4408409,6.24589521 57.4302028,6.63127413 L57.4302028,9.05405405 L52.2589477,9.05405405 L53.9859518,4.22779923 L68.2995956,4.22779923 C68.4875897,4.23298428 68.6698359,4.16338295 68.8055418,4.03457414 C68.9412477,3.90576533 69.0190809,3.72850558 69.0216199,3.54247104 L69.0216199,2.74131274 L68.9923486,2.74131274 Z" id="路径" fill="#69318E"/>
                <path d="M50.7368425,11.9111969 L53.4785834,11.9111969 L52.7955874,17.7027027 C52.6799401,18.1826687 52.217012,18.4990819 51.722308,18.4362934 L49.3025509,18.4362934 L49.995304,12.5579151 L49.995304,12.5579151 L49.995304,12.4131274 C50.0728607,12.0925797 50.3646726,11.8680475 50.6978141,11.8725869 L50.7368425,11.9111969 Z" id="路径" fill="#69318E"/>
                <path d="M67.7629559,11.9111969 L68.4654661,18.4749035 L65.7822677,18.4749035 C65.4399855,18.522586 65.1193366,18.2984227 65.0504863,17.9633205 L64.4845753,12.5965251 L64.4845753,12.5965251 C64.4952134,12.2111462 64.8169389,11.9057721 65.2065996,11.9111969 L67.7629559,11.9111969 Z" id="路径" fill="#69318E"/>
                <path d="M143.487693,1.77606178 L151.830001,1.77606178 C152.845411,1.74831534 153.835501,2.09199194 154.61077,2.74131274 L157.840365,6.02316602 L154.279029,6.02316602 C153.912535,6.08638476 153.539958,5.95000858 153.303321,5.66602317 L151.33239,3.61003861 C150.960921,3.35595793 150.515007,3.23040417 150.063969,3.25289575 L145.253726,3.25289575 C144.805722,3.23036252 144.362884,3.35601672 143.995062,3.61003861 L142.102187,5.54054054 C141.776946,5.90318663 141.289822,6.0807301 140.804495,6.01351351 L137.487086,6.01351351 L140.716681,2.73166023 C141.488958,2.08378431 142.475471,1.74014344 143.487693,1.76640927 L143.487693,1.77606178 Z" id="路径" fill="#69318E"/>
                <path d="M143.155952,16.9980695 L146.083078,16.9980695 L146.083078,12.4227799 L138.550608,12.4227799 L138.550608,11.6312741 C138.561246,11.2458952 138.882972,10.9405211 139.272633,10.9459459 L146.102592,10.9459459 L146.102592,8.84169884 L138.433523,8.84169884 L138.433523,8.05019305 C138.444161,7.66481413 138.765887,7.35944006 139.155548,7.3647937 L156.942714,7.3647937 L156.942714,8.15637066 C156.940144,8.34069669 156.863653,8.5164612 156.730073,8.64498897 C156.596493,8.77351674 156.416769,8.8442767 156.230446,8.84169884 L149.283402,8.84169884 L149.283402,10.9459459 L156.767086,10.9459459 L156.767086,11.7277992 C156.764516,11.9146852 156.686998,12.0929047 156.551588,12.2232426 C156.416178,12.3535805 156.233972,12.4253575 156.045062,12.4227799 L149.283402,12.4227799 L149.283402,16.9980695 L152.210527,16.9980695 L152.961823,14.5849421 C153.157687,14.0517224 153.700191,13.7233006 154.269272,13.7934363 L156.367046,13.7934363 L155.391337,16.9980695 L157.879394,16.9980695 L157.879394,17.7895753 C157.868756,18.1749542 157.54703,18.4803283 157.157369,18.4749746 L137.5066,18.4749746 L137.5066,17.6833977 C137.50917,17.4990716 137.58566,17.3233071 137.71924,17.1947794 C137.85282,17.0662516 138.032545,16.9954916 138.218867,16.9980695 L139.9849,16.9980695 L139.009191,13.7934363 L142.180244,13.7934363 L143.155952,16.9980695 L143.155952,16.9980695 Z" id="路径" fill="#69318E"/>
                <path d="M159.713726,11.1003861 L159.713726,18.4749746 L161.479758,18.4749746 C161.869419,18.4803283 162.191144,18.1749542 162.201782,17.7895753 L162.201782,12.5482625 L163.401904,14.5945946 L162.572552,14.5945946 L162.572552,16.0714286 L163.431175,16.0714286 L163.431175,18.4555985 L165.480163,18.4555985 C165.869824,18.4610233 166.191549,18.1556492 166.202187,17.7702703 L166.202187,16.0907336 L167.051054,16.0907336 L167.051054,14.6138996 L166.231459,14.6138996 L167.43158,12.5482625 L167.43158,18.4555985 L169.197612,18.4555985 C169.383935,18.4581763 169.56366,18.3874164 169.69724,18.2588886 C169.830819,18.1303608 169.90731,17.9545963 169.90988,17.7702703 L169.90988,9.83590734 L160.90409,9.83590734 C160.223434,9.86208709 159.691757,10.426867 159.713726,11.1003861 L159.713726,11.1003861 Z M162.201782,11.9015444 C162.201782,11.2934363 162.474981,11.3127413 162.923807,11.3127413 L167.43158,11.3127413 L167.43158,12.2200772 L165.402106,12.2200772 L164.816681,13.0984556 L164.221499,12.2200772 L162.201782,12.2200772 L162.201782,11.9015444 Z" id="形状" fill="#69318E" fill-rule="nonzero"/>
                <path d="M169.685467,7.54826255 L169.685467,4.6042471 L160.66992,4.6042471 C160.280259,4.5988223 159.958534,4.90419637 159.947896,5.28957529 L159.947896,8.97683398 L168.212147,8.97683398 C168.603344,8.99583211 168.984802,8.85242747 169.264518,8.5812069 C169.544235,8.30998634 169.696818,7.93557058 169.685467,7.54826255 L169.685467,7.54826255 Z M166.89494,7.09459459 C166.89494,7.31660232 166.79737,7.47104247 166.592471,7.47104247 L162.689637,7.47104247 L162.689637,6.08108108 L166.846155,6.08108108 L166.89494,7.09459459 Z" id="形状" fill="#69318E" fill-rule="nonzero"/>
                <path d="M178.554657,15.1447876 C178.94254,15.1613749 179.319662,15.0161989 179.594193,14.7446105 C179.868724,14.4730221 180.015473,14.0999419 179.998706,13.7162162 L179.998706,3.47490347 L176.856924,3.47490347 L176.856924,1.77599061 L174.856722,1.77599061 C174.467061,1.77063697 174.145336,2.07601104 174.134698,2.46138996 L174.134698,3.47490347 L171.724698,3.47490347 C171.335037,3.46947867 171.013311,3.77485274 171.002673,4.16023166 L171.002673,15.1447876 L174.134698,15.1447876 L174.134698,16.9980695 L171.724698,16.9980695 C171.335037,16.9926447 171.013311,17.2980188 171.002673,17.6833977 L171.002673,18.4749035 L178.554657,18.4749035 C178.94254,18.4914907 179.319662,18.3463147 179.594193,18.0747263 C179.868724,17.8031379 180.015473,17.4300577 179.998706,17.046332 L179.998706,16.1969112 L177.871661,16.1969112 L177.871661,16.4864865 C177.871661,16.8725869 177.696034,16.9980695 177.364293,16.9980695 L176.83741,16.9980695 L176.83741,15.1447876 L178.554657,15.1447876 Z M176.83741,4.95173745 L177.735062,4.95173745 L177.735062,13.2722008 C177.735062,13.6679537 177.617977,13.6679537 177.30575,13.6679537 L176.83741,13.6679537 L176.83741,4.95173745 Z M174.115183,13.6389961 L173.227289,13.6389961 L173.227289,4.95173745 L174.115183,4.95173745 L174.115183,13.6389961 Z" id="形状" fill="#69318E" fill-rule="nonzero"/>
                <path d="M159.713726,2.8957529 L159.713726,3.66795367 L169.197612,3.66795367 C169.587208,3.66798983 169.904543,3.3583564 169.90988,2.97297297 L169.90988,2.19111969 L160.43575,2.19111969 C160.24516,2.18853661 160.061476,2.26163264 159.925782,2.39405801 C159.790088,2.52648337 159.713726,2.70718806 159.713726,2.8957529 L159.713726,2.8957529 Z" id="路径" fill="#69318E" fill-rule="nonzero"/>
                <path d="M127.63243,13.9285714 L127.63243,11.3899614 L135.623483,11.3899614 C136.034693,11.3953813 136.37389,11.0727262 136.384535,10.6660232 L136.384535,9.7007722 L127.651944,9.7007722 L127.651944,6.44787645 L124.890689,6.44787645 C124.479479,6.4424565 124.140282,6.76511161 124.129636,7.17181467 L124.129636,9.72972973 L118.685183,9.72972973 L120.500001,4.63320463 L135.555183,4.63320463 C135.751856,4.63578155 135.941507,4.56095344 136.082406,4.42518508 C136.223305,4.28941673 136.303908,4.10383215 136.306479,3.90926641 L136.306479,2.94401544 L121.114697,2.94401544 L121.495223,1.97876448 L118.568098,1.97876448 C118.201568,1.93872254 117.848171,2.1269736 117.680203,2.45173745 L117.485062,2.96332046 L115.787329,2.96332046 C115.588983,2.95813887 115.396811,3.03180988 115.253787,3.1678591 C115.110763,3.30390831 115.028818,3.49098638 115.026276,3.68725869 L115.026276,4.65250965 L116.850851,4.65250965 L114.977491,9.89382239 L114.977491,11.3899614 L124.090608,11.3899614 L124.090608,13.9285714 L114.87992,13.9285714 C114.472494,13.9284354 114.139207,14.2495861 114.128624,14.6525097 L114.128624,15.4440154 L124.110122,15.4440154 L124.110122,19.6138996 L126.285952,19.6138996 C126.651667,19.6345321 127.008541,19.4977471 127.26474,19.2387439 C127.52094,18.9797406 127.651445,18.6238114 127.622673,18.2625483 L127.622673,15.4440154 L136.043037,15.4440154 C136.240476,15.4492259 136.431661,15.3752605 136.573146,15.238927 C136.714632,15.1025934 136.794333,14.9154697 136.794333,14.7200772 L136.794333,13.8899614 L127.63243,13.9285714 Z" id="路径" fill="#69318E"/>
                <path d="M94.5754257,12.1235521 L97.5025513,12.1235521 L96.780527,18.2625483 C96.681777,18.783855 96.176357,19.1286846 95.6487051,19.034749 L93.0923488,19.034749 L93.8143731,12.8474903 L93.8143731,12.8474903 L93.8143731,12.6930502 C93.8964888,12.3550057 94.2045145,12.1184434 94.5559116,12.1235521 L94.5754257,12.1235521 Z" id="路径" fill="#69318E"/>
                <path d="M96.780527,7.30694981 L97.5123084,10.530888 L94.6925108,10.530888 C94.3350217,10.5795411 93.9996537,10.3485595 93.921701,10 L93.4436039,7.93436293 L93.4436039,7.93436293 C93.4243076,7.76107029 93.4863101,7.58858063 93.6118709,7.46624761 C93.7374317,7.3439146 93.9127164,7.28521704 94.0875715,7.30694981 L96.780527,7.30694981 Z" id="路径" fill="#69318E"/>
                <path d="M96.4975715,2.11389961 L97.2293529,5.34749035 L94.4095553,5.34749035 C93.7168023,5.34749035 93.6680168,4.82625483 93.6680168,4.82625483 L93.1899197,2.76061776 L93.1899197,2.76061776 C93.167253,2.58831306 93.2267425,2.41536333 93.3509389,2.29249809 C93.4751353,2.16963285 93.6499587,2.11078089 93.8241302,2.13320463 L96.4975715,2.11389961 Z" id="路径" fill="#69318E"/>
                <path d="M112.050365,17.480695 C111.847759,17.4756183 111.684728,17.3143346 111.679596,17.1138996 L111.679596,10.270203 L99.5222679,10.270203 C99.1110573,10.2648503 98.7718605,10.5875054 98.7612152,10.9942085 L98.7612152,11.8243243 L108.167045,11.8243243 L108.167045,17.6833977 C108.138273,18.0446608 108.268779,18.40059 108.524978,18.6595933 C108.781177,18.9185965 109.138051,19.0553815 109.503766,19.034749 L113.504171,19.034749 L113.504171,17.480695 L112.050365,17.480695 Z" id="路径" fill="#69318E"/>
                <path d="M111.806438,6.36100386 L111.806438,7.19111969 C111.803896,7.387392 111.721951,7.57447007 111.578927,7.71051928 C111.435903,7.84656849 111.243731,7.9202395 111.045385,7.91505792 L99.2100412,7.91505792 L99.2100412,7.08494208 C99.2126119,6.89037634 99.2932145,6.70479177 99.4341135,6.56902341 C99.5750125,6.43325506 99.7646635,6.35842695 99.9613367,6.36100386 L111.806438,6.36100386 L111.806438,6.36100386 Z" id="路径" fill="#69318E"/>
                <path d="M110.547774,2.58687259 L102.615264,2.58687259 L102.615264,2.58687259 L102.888462,2.0173745 L100.019879,2.0173745 C99.7490359,2.01731726 99.5022818,2.17129393 99.3856687,2.41312741 L98.2343327,4.82625483 L101.473685,4.82625483 L101.795669,4.17953668 L101.795669,4.08301158 L111.552754,4.08301158 C111.963964,4.08843154 112.303161,3.76577642 112.313806,3.35907336 L112.313806,2.58687259 L110.547774,2.58687259 Z" id="路径" fill="#69318E" fill-rule="nonzero"/>
            </g>
        </g>
    </g>
</svg>